# xmcd
#
# Track frame offsets:
#	150
#	21038
#	34546
#	51374
#	64735
#	83269
#	94830
#	108351
#	133030
#	153897
#	166140
#	184038
#
# Disc length: 2673 seconds
#
# Revision: 0
# Processed by: cddbd v1.5.2PL0 Copyright (c) Steve Scherf et al.
# Submitted via: audiograbber 1.83.01
#
DISCID=880a6f0c
DTITLE=vicente fernandez - corridos
DYEAR=1900
DGENRE=karaoke
TTITLE0=el corrido de los perez
TTITLE1=arnulfo gonzalez
TTITLE2=valentin de la sierra
TTITLE3=nacho bernal
TTITLE4=el martes me fusilan
TTITLE5=luis pulido
TTITLE6=los dorados de villa
TTITLE7=valente quintero
TTITLE8=los dos hermanos
TTITLE9=gabino barrera
TTITLE10=juan charrasqueado
TTITLE11=la tumba abandonada
EXTD=
EXTT0=
EXTT1=
EXTT2=
EXTT3=
EXTT4=
EXTT5=
EXTT6=
EXTT7=
EXTT8=
EXTT9=
EXTT10=
EXTT11=
PLAYORDER=
